<svg width="520" height="103" viewBox="0 0 520 103" fill="none" xmlns="http://www.w3.org/2000/svg">
<path d="M163.828 77.012C159.78 77.012 156.223 76.0307 153.156 74.068C150.089 72.1053 147.697 69.3147 145.98 65.696C144.263 62.0773 143.404 57.7227 143.404 52.632C143.404 47.6027 144.263 43.2787 145.98 39.66C147.697 36.0413 150.089 33.2813 153.156 31.38C156.223 29.4173 159.78 28.436 163.828 28.436C167.569 28.436 170.912 29.356 173.856 31.196C176.861 32.9747 178.824 35.3973 179.744 38.464H178.732L179.836 29.356H193.176C192.992 31.38 192.808 33.4347 192.624 35.52C192.501 37.544 192.44 39.5373 192.44 41.5V76H178.64L178.548 67.26H179.652C178.671 70.204 176.708 72.5653 173.764 74.344C170.82 76.1227 167.508 77.012 163.828 77.012ZM168.06 66.524C171.249 66.524 173.825 65.3893 175.788 63.12C177.751 60.8507 178.732 57.3547 178.732 52.632C178.732 47.9093 177.751 44.444 175.788 42.236C173.825 40.028 171.249 38.924 168.06 38.924C164.871 38.924 162.295 40.028 160.332 42.236C158.369 44.444 157.388 47.9093 157.388 52.632C157.388 57.3547 158.339 60.8507 160.24 63.12C162.203 65.3893 164.809 66.524 168.06 66.524ZM217.081 77.012C211.254 77.012 206.93 75.4173 204.109 72.228C201.288 68.9773 199.877 64.0707 199.877 57.508V29.356H213.769V57.508C213.769 60.452 214.352 62.6293 215.517 64.04C216.744 65.4507 218.614 66.156 221.129 66.156C223.889 66.156 226.158 65.2053 227.937 63.304C229.777 61.3413 230.697 58.7347 230.697 55.484V29.356H244.589V76H231.065V67.076H232.353C230.942 70.204 228.918 72.6573 226.281 74.436C223.705 76.1533 220.638 77.012 217.081 77.012ZM274.16 77.012C268.088 77.012 263.518 75.5093 260.452 72.504C257.385 69.4373 255.852 64.868 255.852 58.796V39.752H247.02V29.356H255.852V17.948L269.744 14.544V29.356H281.704V39.752H269.744V58.06C269.744 61.004 270.357 63.028 271.584 64.132C272.81 65.236 274.374 65.788 276.276 65.788C277.441 65.788 278.392 65.7267 279.128 65.604C279.925 65.42 280.753 65.1747 281.612 64.868V75.632C280.446 76.1227 279.22 76.46 277.932 76.644C276.644 76.8893 275.386 77.012 274.16 77.012ZM306.783 77.012C301.815 77.012 297.491 76.0307 293.811 74.068C290.192 72.044 287.371 69.2227 285.347 65.604C283.384 61.9853 282.403 57.6613 282.403 52.632C282.403 47.664 283.384 43.3707 285.347 39.752C287.371 36.1333 290.192 33.3427 293.811 31.38C297.491 29.4173 301.815 28.436 306.783 28.436C311.751 28.436 316.075 29.4173 319.755 31.38C323.435 33.3427 326.256 36.1333 328.219 39.752C330.243 43.3707 331.255 47.664 331.255 52.632C331.255 57.6613 330.243 61.9853 328.219 65.604C326.256 69.2227 323.435 72.044 319.755 74.068C316.075 76.0307 311.751 77.012 306.783 77.012ZM306.783 66.524C309.972 66.524 312.487 65.3893 314.327 63.12C316.228 60.8507 317.179 57.3547 317.179 52.632C317.179 47.9093 316.228 44.444 314.327 42.236C312.487 40.028 309.972 38.924 306.783 38.924C303.594 38.924 301.048 40.028 299.147 42.236C297.307 44.444 296.387 47.9093 296.387 52.632C296.387 57.3547 297.307 60.8507 299.147 63.12C301.048 65.3893 303.594 66.524 306.783 66.524ZM336.546 95.872V41.5C336.546 39.5373 336.485 37.544 336.362 35.52C336.24 33.4347 336.056 31.38 335.81 29.356H349.151L350.254 38.464H349.242C350.162 35.3973 352.094 32.9747 355.038 31.196C357.983 29.356 361.356 28.436 365.159 28.436C369.207 28.436 372.764 29.4173 375.831 31.38C378.897 33.2813 381.289 36.0413 383.007 39.66C384.785 43.2787 385.675 47.6027 385.675 52.632C385.675 57.7227 384.785 62.0773 383.007 65.696C381.289 69.3147 378.897 72.1053 375.831 74.068C372.764 76.0307 369.207 77.012 365.159 77.012C361.417 77.012 358.074 76.1227 355.13 74.344C352.248 72.5653 350.316 70.204 349.334 67.26H350.439V95.872H336.546ZM360.927 66.524C364.177 66.524 366.784 65.3893 368.747 63.12C370.709 60.8507 371.691 57.3547 371.691 52.632C371.691 47.9093 370.709 44.444 368.747 42.236C366.784 40.028 364.177 38.924 360.927 38.924C357.737 38.924 355.13 40.028 353.107 42.236C351.144 44.444 350.162 47.9093 350.162 52.632C350.162 57.3547 351.144 60.8507 353.107 63.12C355.13 65.3893 357.737 66.524 360.927 66.524ZM390.995 76V29.356H404.887V76H390.995ZM390.443 21.72V8.748H405.347V21.72H390.443ZM412.562 76V8.28799H426.454V76H412.562ZM456.208 77.012C451.24 77.012 446.916 76.0307 443.236 74.068C439.617 72.044 436.796 69.2227 434.772 65.604C432.809 61.9853 431.828 57.6613 431.828 52.632C431.828 47.664 432.809 43.3707 434.772 39.752C436.796 36.1333 439.617 33.3427 443.236 31.38C446.916 29.4173 451.24 28.436 456.208 28.436C461.176 28.436 465.5 29.4173 469.18 31.38C472.86 33.3427 475.681 36.1333 477.644 39.752C479.668 43.3707 480.68 47.664 480.68 52.632C480.68 57.6613 479.668 61.9853 477.644 65.604C475.681 69.2227 472.86 72.044 469.18 74.068C465.5 76.0307 461.176 77.012 456.208 77.012ZM456.208 66.524C459.397 66.524 461.912 65.3893 463.752 63.12C465.653 60.8507 466.604 57.3547 466.604 52.632C466.604 47.9093 465.653 44.444 463.752 42.236C461.912 40.028 459.397 38.924 456.208 38.924C453.018 38.924 450.473 40.028 448.572 42.236C446.732 44.444 445.812 47.9093 445.812 52.632C445.812 57.3547 446.732 60.8507 448.572 63.12C450.473 65.3893 453.018 66.524 456.208 66.524ZM507.326 77.012C501.254 77.012 496.684 75.5093 493.618 72.504C490.551 69.4373 489.018 64.868 489.018 58.796V39.752H480.186V29.356H489.018V17.948L502.91 14.544V29.356H514.87V39.752H502.91V58.06C502.91 61.004 503.523 63.028 504.75 64.132C505.976 65.236 507.54 65.788 509.442 65.788C510.607 65.788 511.558 65.7267 512.294 65.604C513.091 65.42 513.919 65.1747 514.778 64.868V75.632C513.612 76.1227 512.386 76.46 511.098 76.644C509.81 76.8893 508.552 77.012 507.326 77.012Z" fill="#333333"/>
<rect width="33" height="33" rx="5" fill="#E87173"/>
<rect x="35" width="33" height="33" rx="5" fill="#E87173" fill-opacity="0.15"/>
<rect x="70" width="33" height="33" rx="5" fill="#E87173" fill-opacity="0.1"/>
<rect y="35" width="33" height="33" rx="5" fill="#E87173" fill-opacity="0.1"/>
<rect x="35" y="35" width="33" height="33" rx="5" fill="#E87173"/>
<rect x="70" y="35" width="33" height="33" rx="5" fill="#E87173" fill-opacity="0.3"/>
<rect y="70" width="33" height="33" rx="5" fill="#E87173" fill-opacity="0.3"/>
<rect x="35" y="70" width="33" height="33" rx="5" fill="#E87173" fill-opacity="0.1"/>
<rect x="70" y="70" width="33" height="33" rx="5" fill="#E87173"/>
</svg>
